PathFileType	4	(X/Y/Z)	D:\TRACE\v60_Jaco2_6-2-23\JustBodyDRS_Motion2_6-platform.trc
DataRate	CameraRate	NumFrames	NumMarkers	Units	OrigDataRate	OrigDataStartFrame	OrigNumFrames
100.00	100.00	      50	5	mm	100.00	1	      6741
Frame#	Time	Left_Front			Right_Front			Left_Aft			Right_Aft			Post			
		X1	Y1	Z1	X2	Y2	Z2	X3	Y3	Z3	X4	Y4	Z4	X5	Y5	Z5	

1	0.000	-800.65961	8.70729	-638.96747	769.41241	10.01221	-644.19482	-708.99902	8.02181	496.17859	733.14056	7.11249	505.97699	-14.10332	1307.80261	-961.90027	
2	0.010	-800.67908	8.73797	-638.90503	769.39929	10.03543	-644.15735	-708.94165	8.01621	496.20227	733.21979	7.14735	505.96069	-14.08208	1307.83130	-961.91302	
3	0.020	-800.69006	8.74414	-638.94012	769.46838	9.99888	-644.14154	-708.97815	8.01571	496.17044	733.20581	7.12943	505.98520	-14.06876	1307.77771	-961.92072	
4	0.030	-800.71240	8.67804	-638.88483	769.48840	10.01309	-644.09814	-708.97424	7.95809	496.18387	733.16620	7.10668	505.99872	-14.09222	1307.80103	-961.89453	
5	0.040	-800.70093	8.70526	-638.87677	769.51422	10.01387	-644.13660	-708.97083	7.99870	496.15698	733.18152	7.10536	506.00882	-14.01365	1307.77905	-961.90900	
6	0.050	-800.69891	8.69585	-638.92145	769.36224	10.01774	-644.16095	-708.96588	8.01930	496.20001	733.19879	7.14145	505.97528	-14.09398	1307.83191	-961.90344	
7	0.060	-800.66986	8.77594	-638.91309	769.48889	10.01599	-644.11841	-708.95715	8.00821	496.18399	733.25281	7.14948	505.98779	-14.04299	1307.84143	-961.90265	
8	0.070	-800.70111	8.74734	-638.86169	769.50629	9.98204	-644.10999	-708.96411	7.98029	496.18103	733.22028	7.12817	506.00717	-14.02316	1307.82141	-961.88525	
9	0.080	-800.71893	8.72261	-638.85449	769.46362	9.99589	-644.09729	-708.94244	8.00834	496.20480	733.18933	7.11084	506.00452	-14.06573	1307.79028	-961.90015	
10	0.090	-800.74384	8.68841	-638.82043	769.45581	9.97437	-644.11932	-708.94781	7.98508	496.16568	733.15070	7.07253	506.06088	-13.93224	1307.73474	-961.85931	
11	0.100	-800.76135	8.77532	-638.89978	769.48486	9.98428	-644.09583	-708.94946	7.97265	496.18430	733.16351	7.11538	506.00525	-14.03005	1307.79065	-961.91681	
12	0.110	-800.70221	8.75017	-638.88525	769.41803	9.97804	-644.14557	-708.92889	7.96551	496.20404	733.22852	7.12832	505.99405	-14.05064	1307.81628	-961.89752	
13	0.120	-800.68842	8.76172	-638.89563	769.33936	10.05190	-644.19305	-708.95435	8.03033	496.17566	733.23145	7.13574	505.99069	-13.95488	1307.80151	-961.89948	
14	0.130	-800.72687	8.76525	-638.88281	769.36249	10.04437	-644.13739	-708.97345	8.01461	496.16141	733.17993	7.11490	506.01382	-13.95876	1307.80627	-961.90027	
15	0.140	-800.70923	8.70913	-638.89471	769.42456	9.98062	-644.12134	-708.94800	7.95257	496.22372	733.16382	7.10582	506.00891	-14.00449	1307.77283	-961.86450	
16	0.150	-800.71344	8.76532	-638.83160	769.30670	10.01975	-644.19025	-708.98730	7.97689	496.18707	733.14441	7.12453	505.98001	-14.02216	1307.75452	-961.87671	
17	0.160	-800.65570	8.71535	-638.93805	769.46893	9.99633	-644.13019	-708.99866	7.98929	496.16943	733.22473	7.12308	505.99933	-14.03029	1307.81287	-961.88922	
18	0.170	-800.66614	8.75272	-638.92212	769.51862	9.99357	-644.10614	-708.96735	8.03342	496.17337	733.21716	7.14181	505.96548	-14.07150	1307.83716	-961.89307	
19	0.180	-800.64227	8.72436	-638.94415	769.37842	10.05127	-644.19501	-708.97705	8.02246	496.18326	733.26569	7.13227	505.97910	-14.11668	1307.84351	-961.91156	
20	0.190	-800.69464	8.75807	-638.92200	769.36597	10.03167	-644.17871	-708.93811	7.96176	496.21402	733.23065	7.12685	505.98532	-14.15657	1307.83057	-961.88226	
21	0.200	-800.69250	8.74018	-638.95746	769.39819	10.07350	-644.16364	-708.95953	7.94734	496.16794	733.18958	7.12520	506.01697	-14.14414	1307.84155	-961.90912	
22	0.210	-800.70270	8.73221	-638.86560	769.49469	10.00080	-644.14465	-708.96399	7.95837	496.18414	733.18457	7.09813	506.00757	-14.05357	1307.79736	-961.89203	
23	0.220	-800.67902	8.78759	-638.93146	769.36505	10.01228	-644.18091	-708.96661	7.98828	496.14767	733.27142	7.13986	506.00473	-14.03952	1307.79858	-961.87262	
24	0.230	-800.66656	8.79051	-638.88806	769.47650	10.01298	-644.10907	-708.93994	8.00498	496.20566	733.25079	7.14077	505.95404	-14.07086	1307.79407	-961.91272	
25	0.240	-800.73706	8.75584	-638.85278	769.45404	9.97835	-644.10608	-708.93713	7.93934	496.23557	733.10657	7.09133	506.00146	-14.11126	1307.77625	-961.93781	
26	0.250	-800.74182	8.71078	-638.86676	769.47791	9.99920	-644.08459	-708.91809	7.96880	496.22818	733.16571	7.10109	506.00723	-14.00720	1307.76599	-961.90991	
27	0.260	-800.76300	8.71839	-638.86053	769.36304	10.03322	-644.15161	-708.95264	7.94835	496.21515	733.21350	7.11389	505.99274	-14.03659	1307.77258	-961.88843	
28	0.270	-800.66650	8.73262	-638.93860	769.46893	9.97301	-644.11560	-708.95837	7.98448	496.20190	733.19989	7.12073	505.98917	-14.08158	1307.81238	-961.89453	
29	0.280	-800.66266	8.74129	-638.90430	769.53680	9.98903	-644.11066	-708.95349	7.97518	496.18698	733.22101	7.11132	505.97128	-14.04561	1307.83179	-961.88367	
30	0.290	-800.67511	8.73447	-638.91815	769.38269	10.00475	-644.16577	-708.95917	7.99694	496.18427	733.23944	7.14378	505.99942	-14.04866	1307.78882	-961.90375	
31	0.300	-800.70056	8.74870	-638.90906	769.54559	9.98385	-644.06866	-708.97943	7.97742	496.14215	733.17542	7.10822	505.97147	-13.99479	1307.76990	-961.86639	
32	0.310	-800.73358	8.68552	-638.88025	769.47205	9.99410	-644.08832	-708.96594	7.93481	496.19333	733.14746	7.07668	506.02371	-14.05473	1307.73303	-961.88049	
33	0.320	-800.71942	8.75765	-638.85431	769.48468	10.00075	-644.12811	-708.93781	7.94754	496.20850	733.20465	7.13328	505.98846	-14.04991	1307.79358	-961.88281	
34	0.330	-800.66846	8.77553	-638.87823	769.46552	9.98569	-644.12665	-708.95941	7.98501	496.17303	733.26971	7.14209	505.93909	-14.14337	1307.83289	-961.95258	
35	0.340	-800.67645	8.77795	-638.94489	769.53650	10.01913	-644.06671	-708.93536	7.97042	496.21390	733.34473	7.20159	505.98328	-14.06601	1307.82336	-961.89978	
36	0.350	-800.70001	8.71353	-638.93817	769.26849	10.02956	-644.17200	-708.97357	8.02112	496.15851	733.19867	7.14574	505.97311	-14.11262	1307.82813	-961.93408	
37	0.360	-800.69269	8.68826	-638.85217	769.45990	9.96894	-644.10468	-708.94708	7.97933	496.21588	733.24457	7.14004	506.02316	-14.07462	1307.75903	-961.89667	
38	0.370	-800.69360	8.70256	-638.90356	769.36743	10.04477	-644.16010	-708.93347	7.93824	496.28427	733.21503	7.11662	505.97940	-14.05612	1307.76160	-961.89374	
39	0.380	-800.66559	8.69088	-638.91321	769.46942	9.99685	-644.11353	-708.97235	7.98603	496.18152	733.19183	7.12226	505.98669	-14.08613	1307.81104	-961.89307	
40	0.390	-800.66382	8.75754	-638.89703	769.54388	10.02354	-644.05676	-708.97632	8.00086	496.17960	733.24451	7.15482	505.98077	-14.16570	1307.85693	-961.91949	
41	0.400	-800.66913	8.76011	-638.86328	769.48828	9.98766	-644.13702	-708.94965	7.96623	496.24667	733.26849	7.16103	505.97574	-14.15265	1307.85925	-961.93402	
42	0.410	-800.71191	8.70599	-638.90936	769.48810	9.98179	-644.09143	-708.95514	7.98734	496.16949	733.23584	7.11467	505.96655	-14.06987	1307.77991	-961.89679	
43	0.420	-800.71527	8.69608	-638.79797	769.39624	9.99395	-644.14496	-708.96692	7.95728	496.20941	733.20831	7.13098	505.98767	-13.96684	1307.76404	-961.88678	
44	0.430	-800.65985	8.71110	-638.89618	769.49683	9.97907	-644.12769	-708.98187	8.00495	496.18408	733.18658	7.11318	505.97977	-14.08653	1307.76001	-961.91235	
45	0.440	-800.66040	8.74544	-638.89746	769.50824	9.98588	-644.11505	-708.93677	7.97395	496.20746	733.25134	7.13384	505.99112	-14.05376	1307.77441	-961.90906	
46	0.450	-800.68970	8.75916	-638.79181	769.36011	10.00240	-644.18085	-708.99329	7.95216	496.17340	733.22058	7.12157	505.99240	-14.02976	1307.76575	-961.91907	
47	0.460	-800.70221	8.70897	-638.87036	769.31726	10.01568	-644.18872	-708.95245	7.99577	496.18240	733.18610	7.13148	505.99078	-14.04737	1307.78760	-961.88818	
48	0.470	-800.74268	8.67632	-638.82776	769.52582	9.97865	-644.10895	-708.94055	7.92660	496.21603	733.14813	7.11332	505.99472	-14.02847	1307.78174	-961.88037	
49	0.480	-800.67462	8.66803	-638.94208	769.35065	10.02299	-644.15002	-708.96515	7.98252	496.20422	733.18286	7.12947	505.98502	-14.04235	1307.81531	-961.88721	
50	0.490	-800.66431	8.74104	-638.93970	769.49078	9.99103	-644.13660	-709.01385	8.01957	496.17700	733.23218	7.11057	505.98413	-13.96823	1307.79773	-961.87305	
